<svg xmlns="http://www.w3.org/2000/svg" width="64" height="64">
  <path fill="hsl(34, 50%, 70%)" d="M62.4 32a30.4 30.4 0 1 1-60.8 0 30.4 30.4 0 1 1 60.8 0z"/>
  <path d="M32 0a32 32 0 1 0 0 64 32 32 0 0 0 0-64zm0 58A26 26 0 0 1 7.5 23.4L17.6 28c-.2 1.3-.4 2.7-.4 4.2 0 12.8 9.5 16.4 15.5 16.4A15.6 15.6 0 0 0 43 44.8L38.3 39l-.4.4c-1.8 1.8-3.8 1.8-4.3 1.8-4.8 0-6.9-5.2-7-9.3l28.1 12.5h.1A26 26 0 0 1 32 58zm25-19.4L28.2 25.7c1-1.8 2.8-3.3 5.2-3.3a6.1 6.1 0 0 1 4.5 2L43 19c-3.5-3-7.5-3.6-10-3.6-6.2 0-10.5 2.7-13 6.7l-9.7-4.3a26 26 0 0 1 46.8 21v-.2z"/>
</svg>
